<svg width="24" height="24" viewBox="0 0 24 24" fill="none" xmlns="http://www.w3.org/2000/svg">
<path d="M12.0071 3.09753C11.8761 3.09739 11.7464 3.12309 11.6254 3.17315C11.5044 3.2232 11.3944 3.29664 11.3018 3.38925C11.2092 3.48186 11.1357 3.59182 11.0857 3.71285C11.0356 3.83387 11.0099 3.96358 11.0101 4.09455L11.003 11.003L4.08749 11.003C3.95656 11.003 3.82691 11.0288 3.70595 11.0789C3.58498 11.129 3.47507 11.2024 3.38249 11.295C3.28991 11.3876 3.21647 11.4975 3.16636 11.6185C3.11626 11.7394 3.09047 11.8691 3.09047 12C3.09047 12.1309 3.11626 12.2606 3.16636 12.3815C3.21647 12.5025 3.28991 12.6124 3.38249 12.705C3.47507 12.7976 3.58498 12.871 3.70595 12.9211C3.82691 12.9712 3.95656 12.997 4.08749 12.997L11.003 12.997L11.003 19.9125C11.003 20.0435 11.0288 20.1731 11.0789 20.2941C11.129 20.415 11.2024 20.5249 11.295 20.6175C11.3876 20.7101 11.4975 20.7835 11.6185 20.8337C11.7394 20.8838 11.8691 20.9095 12 20.9095C12.1309 20.9095 12.2606 20.8838 12.3816 20.8337C12.5025 20.7835 12.6124 20.7101 12.705 20.6175C12.7976 20.5249 12.871 20.415 12.9211 20.2941C12.9712 20.1731 12.997 20.0435 12.997 19.9125L12.997 12.997L19.9125 12.997C20.0435 12.997 20.1731 12.9712 20.2941 12.9211C20.415 12.871 20.525 12.7976 20.6175 12.705C20.7101 12.6124 20.7836 12.5025 20.8337 12.3815C20.8838 12.2606 20.9096 12.1309 20.9096 12C20.9096 11.8691 20.8838 11.7394 20.8337 11.6185C20.7836 11.4975 20.7101 11.3876 20.6175 11.295C20.525 11.2024 20.415 11.129 20.2941 11.0789C20.1731 11.0288 20.0435 11.003 19.9125 11.003L12.997 11.003L12.997 4.08748C12.997 3.55008 12.5445 3.09753 12.0071 3.09753Z" fill="black"/>
</svg>
