<svg width="24" height="24" viewBox="0 0 24 24" fill="none" xmlns="http://www.w3.org/2000/svg">
<path d="M16.9856 12.7477C17.0852 12.7495 17.1841 12.7314 17.2766 12.6945C17.3692 12.6577 17.4534 12.6027 17.5245 12.533C17.5955 12.4632 17.652 12.38 17.6905 12.2881C17.7291 12.1963 17.749 12.0977 17.749 11.9982C17.7491 11.8986 17.7293 11.8 17.6908 11.7081C17.6523 11.6162 17.596 11.533 17.525 11.4631C17.454 11.3933 17.3698 11.3383 17.2773 11.3013C17.1848 11.2644 17.0859 11.2462 16.9863 11.2479L12.7359 11.2472L12.7359 6.99749C12.7395 6.89683 12.7227 6.79649 12.6867 6.70245C12.6506 6.60841 12.5959 6.5226 12.526 6.45014C12.456 6.37767 12.3722 6.32004 12.2795 6.28068C12.1868 6.24132 12.0871 6.22103 11.9864 6.22103C11.8857 6.22103 11.786 6.24132 11.6933 6.28068C11.6006 6.32004 11.5167 6.37767 11.4468 6.45014C11.3768 6.5226 11.3222 6.60841 11.2861 6.70245C11.2501 6.79649 11.2333 6.89683 11.2369 6.99749L11.2347 11.2465L6.98502 11.2465C6.79081 11.2533 6.60684 11.3353 6.47188 11.4751C6.33691 11.6149 6.26148 11.8017 6.26148 11.996C6.26148 12.1904 6.33691 12.3771 6.47188 12.5169C6.60684 12.6567 6.79081 12.7387 6.98502 12.7456L11.2361 12.747L11.2354 16.9974C11.2423 17.1916 11.3243 17.3756 11.4641 17.5105C11.6039 17.6455 11.7906 17.7209 11.985 17.7209C12.1793 17.7209 12.3661 17.6455 12.5059 17.5105C12.6457 17.3756 12.7277 17.1916 12.7345 16.9974L12.7366 12.7484L16.9856 12.7477Z" fill="black"/>
</svg>
