<svg width="24" height="24" viewBox="0 0 24 24" fill="none" xmlns="http://www.w3.org/2000/svg">
<path d="M16.066 8.99499C16.1377 8.92584 16.1948 8.84311 16.2342 8.75162C16.2735 8.66014 16.2943 8.56173 16.2952 8.46215C16.2961 8.36257 16.2772 8.2638 16.2395 8.17161C16.2018 8.07942 16.1462 7.99565 16.0758 7.9252C16.0054 7.85475 15.9217 7.79902 15.8295 7.76127C15.7374 7.72351 15.6386 7.70449 15.5391 7.70531C15.4395 7.70613 15.341 7.72677 15.2495 7.76603C15.158 7.80529 15.0752 7.86239 15.006 7.93399L12 10.939L8.995 7.93399C8.92634 7.8603 8.84354 7.8012 8.75154 7.76021C8.65954 7.71922 8.56022 7.69718 8.45952 7.6954C8.35882 7.69362 8.25879 7.71215 8.1654 7.74987C8.07201 7.78759 7.98718 7.84373 7.91596 7.91495C7.84474 7.98617 7.7886 8.071 7.75087 8.16439C7.71315 8.25778 7.69463 8.35781 7.69641 8.45851C7.69818 8.55922 7.72022 8.65853 7.76122 8.75053C7.80221 8.84253 7.86131 8.92533 7.935 8.99399L10.938 12L7.933 15.005C7.80052 15.1472 7.72839 15.3352 7.73182 15.5295C7.73525 15.7238 7.81396 15.9092 7.95138 16.0466C8.08879 16.184 8.27417 16.2627 8.46847 16.2662C8.66278 16.2696 8.85082 16.1975 8.993 16.065L12 13.06L15.005 16.066C15.1472 16.1985 15.3352 16.2706 15.5295 16.2672C15.7238 16.2637 15.9092 16.185 16.0466 16.0476C16.184 15.9102 16.2627 15.7248 16.2662 15.5305C16.2696 15.3362 16.1975 15.1482 16.065 15.006L13.062 12L16.066 8.99499Z" fill="black"/>
</svg>
